{"asset":{"version":"2.0","generator":"Blockbench 4.12.2 glTF exporter"},"scenes":[{"nodes":[5],"name":"blockbench_export"}],"scene":0,"nodes":[{"name":"sphere","mesh":0},{"translation":[0,0.1875,0],"name":"cylinder","mesh":1},{"rotation":[-0.04361938736533601,0,0,0.9990482215818578],"translation":[-0.018750000000000003,0.5,-0.037500000000000006],"name":"cube","mesh":2},{"rotation":[-0.3214394653031616,0,0,0.9469301294951057],"translation":[-0.018750000000000003,0.6437500000000002,-0.03125],"name":"cube","mesh":3},{"name":"bone","children":[2,3]},{"children":[0,1,4]}],"bufferViews":[{"buffer":0,"byteOffset":0,"byteLength":5760,"target":34962,"byteStride":12},{"buffer":0,"byteOffset":5760,"byteLength":5760,"target":34962,"byteStride":12},{"buffer":0,"byteOffset":11520,"byteLength":3840,"target":34962,"byteStride":8},{"buffer":0,"byteOffset":15360,"byteLength":1344,"target":34963},{"buffer":0,"byteOffset":16704,"byteLength":1920,"target":34962,"byteStride":12},{"buffer":0,"byteOffset":18624,"byteLength":1920,"target":34962,"byteStride":12},{"buffer":0,"byteOffset":20544,"byteLength":1280,"target":34962,"byteStride":8},{"buffer":0,"byteOffset":21824,"byteLength":384,"target":34963},{"buffer":0,"byteOffset":22208,"byteLength":288,"target":34962,"byteStride":12},{"buffer":0,"byteOffset":22496,"byteLength":288,"target":34962,"byteStride":12},{"buffer":0,"byteOffset":22784,"byteLength":192,"target":34962,"byteStride":8},{"buffer":0,"byteOffset":22976,"byteLength":72,"target":34963},{"buffer":0,"byteOffset":23048,"byteLength":288,"target":34962,"byteStride":12},{"buffer":0,"byteOffset":23336,"byteLength":288,"target":34962,"byteStride":12},{"buffer":0,"byteOffset":23624,"byteLength":192,"target":34962,"byteStride":8},{"buffer":0,"byteOffset":23816,"byteLength":72,"target":34963}],"buffers":[{"byteLength":23888,"uri":"data:application/octet-stream;base64,"}],"accessors":[{"bufferView":0,"componentType":5126,"count":480,"max":[0.5,0.5,0.5],"min":[-0.5,-0.5,-0.5],"type":"VEC3"},{"bufferView":1,"componentType":5126,"count":480,"max":[0.9807852506637573,0.9807853102684021,0.9807852506637573],"min":[-0.9807852506637573,-0.9807853102684021,-0.9807852506637573],"type":"VEC3"},{"bufferView":2,"componentType":5126,"count":480,"max":[0.7760873436927795,0.671875],"min":[0,0],"type":"VEC2"},{"bufferView":3,"componentType":5123,"count":672,"max":[479],"min":[0],"type":"SCALAR"},{"bufferView":4,"componentType":5126,"count":160,"max":[0.2874999940395355,0.3499999940395355,0.2874999940395355],"min":[-0.2874999940395355,0.15000000596046448,-0.2874999940395355],"type":"VEC3"},{"bufferView":5,"componentType":5126,"count":160,"max":[1,1,1],"min":[-1,-1,-1],"type":"VEC3"},{"bufferView":6,"componentType":5126,"count":160,"max":[0.6499999761581421,0.643750011920929],"min":[0,0],"type":"VEC2"},{"bufferView":7,"componentType":5123,"count":192,"max":[159],"min":[0],"type":"SCALAR"},{"bufferView":8,"componentType":5126,"count":24,"max":[0.0625,0.1875,0.0625],"min":[0,0,0],"type":"VEC3"},{"bufferView":9,"componentType":5126,"count":24,"max":[1,1,1],"min":[-1,-1,-1],"type":"VEC3"},{"bufferView":10,"componentType":5126,"count":24,"max":[0.578125,0.671875],"min":[0.078125,0.09375],"type":"VEC2"},{"bufferView":11,"componentType":5123,"count":36,"max":[23],"min":[0],"type":"SCALAR"},{"bufferView":12,"componentType":5126,"count":24,"max":[0.05000000074505806,0.13750000298023224,0.0625],"min":[0.012500000186264515,0,0],"type":"VEC3"},{"bufferView":13,"componentType":5126,"count":24,"max":[1,1,1],"min":[-1,-1,-1],"type":"VEC3"},{"bufferView":14,"componentType":5126,"count":24,"max":[0.421875,0.546875],"min":[0,0],"type":"VEC2"},{"bufferView":15,"componentType":5123,"count":36,"max":[23],"min":[0],"type":"SCALAR"}],"materials":[{"pbrMetallicRoughness":{"metallicFactor":0,"roughnessFactor":1,"baseColorTexture":{"index":0}},"alphaMode":"MASK","alphaCutoff":0.05,"doubleSided":true}],"textures":[{"sampler":0,"source":0,"name":"texture"}],"samplers":[{"magFilter":9728,"minFilter":9728,"wrapS":33071,"wrapT":33071}],"images":[{"mimeType":"image/png","uri":"data:image/png;base64,"}],"meshes":[{"primitives":[{"mode":4,"attributes":{"POSITION":0,"NORMAL":1,"TEXCOORD_0":2},"indices":3,"material":0}]},{"primitives":[{"mode":4,"attributes":{"POSITION":4,"NORMAL":5,"TEXCOORD_0":6},"indices":7,"material":0}]},{"primitives":[{"mode":4,"attributes":{"POSITION":8,"NORMAL":9,"TEXCOORD_0":10},"indices":11,"material":0}]},{"primitives":[{"mode":4,"attributes":{"POSITION":12,"NORMAL":13,"TEXCOORD_0":14},"indices":15,"material":0}]}]}