{"asset":{"version":"2.0","generator":"Blockbench 4.12.2 glTF exporter"},"scenes":[{"nodes":[3],"name":"blockbench_export"}],"scene":0,"nodes":[{"rotation":[-0.7071067811865475,0,0,0.7071067811865476],"translation":[-2.9753461476506228e-18,-3.1651095000278585e-17,0.1875],"name":"cylinder","mesh":0},{"translation":[-2.9753461476506228e-18,-3.1651095000278585e-17,-1.375],"name":"sphere","mesh":1},{"translation":[2.9753461476506228e-18,3.1651095000278585e-17,0],"name":"bone","children":[0,1]},{"children":[2]}],"bufferViews":[{"buffer":0,"byteOffset":0,"byteLength":1920,"target":34962,"byteStride":12},{"buffer":0,"byteOffset":1920,"byteLength":1920,"target":34962,"byteStride":12},{"buffer":0,"byteOffset":3840,"byteLength":1280,"target":34962,"byteStride":8},{"buffer":0,"byteOffset":5120,"byteLength":384,"target":34963},{"buffer":0,"byteOffset":5504,"byteLength":5760,"target":34962,"byteStride":12},{"buffer":0,"byteOffset":11264,"byteLength":5760,"target":34962,"byteStride":12},{"buffer":0,"byteOffset":17024,"byteLength":3840,"target":34962,"byteStride":8},{"buffer":0,"byteOffset":20864,"byteLength":1344,"target":34963}],"buffers":[{"byteLength":22208,"uri":"data:application/octet-stream;base64,"}],"accessors":[{"bufferView":0,"componentType":5126,"count":160,"max":[0.0625,1.4375,0.0625],"min":[-0.0625,-0.9375,-0.0625],"type":"VEC3"},{"bufferView":1,"componentType":5126,"count":160,"max":[1,1,1],"min":[-1,-1,-1],"type":"VEC3"},{"bufferView":2,"componentType":5126,"count":160,"max":[0.390625,0.59375],"min":[0.0031937500461935997,0],"type":"VEC2"},{"bufferView":3,"componentType":5123,"count":192,"max":[159],"min":[0],"type":"SCALAR"},{"bufferView":4,"componentType":5126,"count":480,"max":[0.15625,0.15625,0.15625],"min":[-0.15625,-0.15625,-0.15625],"type":"VEC3"},{"bufferView":5,"componentType":5126,"count":480,"max":[0.9807852506637573,0.9807853102684021,0.9807852506637573],"min":[-0.9807852506637573,-0.9807853102684021,-0.9807852506637573],"type":"VEC3"},{"bufferView":6,"componentType":5126,"count":480,"max":[0.40625,0.37663060426712036],"min":[0.2191949337720871,0],"type":"VEC2"},{"bufferView":7,"componentType":5123,"count":672,"max":[479],"min":[0],"type":"SCALAR"}],"materials":[{"pbrMetallicRoughness":{"metallicFactor":0,"roughnessFactor":1,"baseColorTexture":{"index":0}},"alphaMode":"MASK","alphaCutoff":0.05,"doubleSided":true}],"textures":[{"sampler":0,"source":0,"name":"texture"}],"samplers":[{"magFilter":9728,"minFilter":9728,"wrapS":33071,"wrapT":33071}],"images":[{"mimeType":"image/png","uri":"data:image/png;base64,"}],"meshes":[{"primitives":[{"mode":4,"attributes":{"POSITION":0,"NORMAL":1,"TEXCOORD_0":2},"indices":3,"material":0}]},{"primitives":[{"mode":4,"attributes":{"POSITION":4,"NORMAL":5,"TEXCOORD_0":6},"indices":7,"material":0}]}]}