{"asset":{"version":"2.0","generator":"Blockbench 4.12.2 glTF exporter"},"scenes":[{"nodes":[12],"name":"blockbench_export"}],"scene":0,"nodes":[{"translation":[-2.9753461476506228e-18,-3.1651095000278585e-17,-1.375],"name":"sphere","mesh":0},{"rotation":[-0.7064337722128913,-0.03084356459723186,-0.030843564597231938,0.706433772212893],"translation":[-0.009461064313085441,6.051550510090824e-16,0.5822013254770635],"name":"cylinder","mesh":1},{"rotation":[-0.7069385089210117,0.015425453138743089,0.015425453138743106,0.7069385089210132],"translation":[7.43299470821022e-18,-3.1651095000278585e-17,1.1374999999999993],"name":"cylinder","mesh":2},{"rotation":[0,-0.2798290140309921,0,0.9600498543859287],"translation":[0.1875,0,0.3125],"name":"cube","mesh":3},{"rotation":[0.0667651724177521,0.7631294127377685,0.05602263155122397,0.6403416087687979],"translation":[2.7755575615628914e-17,0.04375,-0.018750000000000044],"name":"cube","mesh":4},{"translation":[-0.25,-0.031249999999999997,-1.3187499999999994],"name":"bone2","children":[3,4]},{"rotation":[0,-0.2798290140309921,0,0.9600498543859287],"translation":[0.1875,0,0.3125],"name":"cube","mesh":5},{"rotation":[0.03675337874502388,0.765162255985153,0.030839746549468444,0.642047366787919],"translation":[0,0.01874999999999999,0],"name":"cube","mesh":6},{"rotation":[8.673617379884033e-19,-2.5587171270657905e-17,-1,1.1714553645825241e-15],"translation":[0.25,0.03125,-1.3187499999999994],"name":"bone3","children":[6,7]},{"rotation":[-0.707046201633167,0.00925574179148705,0.009255741791487054,0.7070462016331673],"translation":[-0.006250000000000003,-3.1651095000278585e-17,0.14375],"name":"cylinder","mesh":7},{"rotation":[-0.7069385089210123,-0.015425453138743094,-0.0154254531387431,0.7069385089210126],"translation":[-0.03125,-3.1651095000278585e-17,-0.61875],"name":"cylinder","mesh":8},{"translation":[2.9753461476506228e-18,3.1651095000278585e-17,0],"name":"bone","children":[0,1,2,5,8,9,10]},{"children":[11]}],"bufferViews":[{"buffer":0,"byteOffset":0,"byteLength":5760,"target":34962,"byteStride":12},{"buffer":0,"byteOffset":5760,"byteLength":5760,"target":34962,"byteStride":12},{"buffer":0,"byteOffset":11520,"byteLength":3840,"target":34962,"byteStride":8},{"buffer":0,"byteOffset":15360,"byteLength":1344,"target":34963},{"buffer":0,"byteOffset":16704,"byteLength":1920,"target":34962,"byteStride":12},{"buffer":0,"byteOffset":18624,"byteLength":1920,"target":34962,"byteStride":12},{"buffer":0,"byteOffset":20544,"byteLength":1280,"target":34962,"byteStride":8},{"buffer":0,"byteOffset":21824,"byteLength":384,"target":34963},{"buffer":0,"byteOffset":22208,"byteLength":1920,"target":34962,"byteStride":12},{"buffer":0,"byteOffset":24128,"byteLength":1920,"target":34962,"byteStride":12},{"buffer":0,"byteOffset":26048,"byteLength":1280,"target":34962,"byteStride":8},{"buffer":0,"byteOffset":27328,"byteLength":384,"target":34963},{"buffer":0,"byteOffset":27712,"byteLength":288,"target":34962,"byteStride":12},{"buffer":0,"byteOffset":28000,"byteLength":288,"target":34962,"byteStride":12},{"buffer":0,"byteOffset":28288,"byteLength":192,"target":34962,"byteStride":8},{"buffer":0,"byteOffset":28480,"byteLength":72,"target":34963},{"buffer":0,"byteOffset":28552,"byteLength":288,"target":34962,"byteStride":12},{"buffer":0,"byteOffset":28840,"byteLength":288,"target":34962,"byteStride":12},{"buffer":0,"byteOffset":29128,"byteLength":192,"target":34962,"byteStride":8},{"buffer":0,"byteOffset":29320,"byteLength":72,"target":34963},{"buffer":0,"byteOffset":29392,"byteLength":288,"target":34962,"byteStride":12},{"buffer":0,"byteOffset":29680,"byteLength":288,"target":34962,"byteStride":12},{"buffer":0,"byteOffset":29968,"byteLength":192,"target":34962,"byteStride":8},{"buffer":0,"byteOffset":30160,"byteLength":72,"target":34963},{"buffer":0,"byteOffset":30232,"byteLength":288,"target":34962,"byteStride":12},{"buffer":0,"byteOffset":30520,"byteLength":288,"target":34962,"byteStride":12},{"buffer":0,"byteOffset":30808,"byteLength":192,"target":34962,"byteStride":8},{"buffer":0,"byteOffset":31000,"byteLength":72,"target":34963},{"buffer":0,"byteOffset":31072,"byteLength":1920,"target":34962,"byteStride":12},{"buffer":0,"byteOffset":32992,"byteLength":1920,"target":34962,"byteStride":12},{"buffer":0,"byteOffset":34912,"byteLength":1280,"target":34962,"byteStride":8},{"buffer":0,"byteOffset":36192,"byteLength":384,"target":34963},{"buffer":0,"byteOffset":36576,"byteLength":1920,"target":34962,"byteStride":12},{"buffer":0,"byteOffset":38496,"byteLength":1920,"target":34962,"byteStride":12},{"buffer":0,"byteOffset":40416,"byteLength":1280,"target":34962,"byteStride":8},{"buffer":0,"byteOffset":41696,"byteLength":384,"target":34963}],"buffers":[{"byteLength":42080,"uri":"data:application/octet-stream;base64,"}],"accessors":[{"bufferView":0,"componentType":5126,"count":480,"max":[0.15625,0.15625,0.15625],"min":[-0.15625,-0.15625,-0.15625],"type":"VEC3"},{"bufferView":1,"componentType":5126,"count":480,"max":[0.9807852506637573,0.9807853102684021,0.9807852506637573],"min":[-0.9807852506637573,-0.9807853102684021,-0.9807852506637573],"type":"VEC3"},{"bufferView":2,"componentType":5126,"count":480,"max":[0.40625,0.37663060426712036],"min":[0.2191949337720871,0],"type":"VEC2"},{"bufferView":3,"componentType":5123,"count":672,"max":[479],"min":[0],"type":"SCALAR"},{"bufferView":4,"componentType":5126,"count":160,"max":[0.0625,0.125,0.0625],"min":[-0.0625,-0.125,-0.0625],"type":"VEC3"},{"bufferView":5,"componentType":5126,"count":160,"max":[1,1,1],"min":[-1,-1,-1],"type":"VEC3"},{"bufferView":6,"componentType":5126,"count":160,"max":[0.390625,0.59375],"min":[0.0031937500461935997,0],"type":"VEC2"},{"bufferView":7,"componentType":5123,"count":192,"max":[159],"min":[0],"type":"SCALAR"},{"bufferView":8,"componentType":5126,"count":160,"max":[0.0625,0.4375,0.0625],"min":[-0.0625,0.0625,-0.0625],"type":"VEC3"},{"bufferView":9,"componentType":5126,"count":160,"max":[1,1,1],"min":[-1,-1,-1],"type":"VEC3"},{"bufferView":10,"componentType":5126,"count":160,"max":[0.390625,0.59375],"min":[0.0031937500461935997,0],"type":"VEC2"},{"bufferView":11,"componentType":5123,"count":192,"max":[159],"min":[0],"type":"SCALAR"},{"bufferView":12,"componentType":5126,"count":24,"max":[0.0625,0.0625,0.0625],"min":[-0.15625,0,-0.0625],"type":"VEC3"},{"bufferView":13,"componentType":5126,"count":24,"max":[1,1,1],"min":[-1,-1,-1],"type":"VEC3"},{"bufferView":14,"componentType":5126,"count":24,"max":[0.5078125,0.140625],"min":[0.453125,0.109375],"type":"VEC2"},{"bufferView":15,"componentType":5123,"count":36,"max":[23],"min":[0],"type":"SCALAR"},{"bufferView":16,"componentType":5126,"count":24,"max":[0.0625,0.0625,0.0625],"min":[-0.28125,3.469446951953614e-18,-0.02500000037252903],"type":"VEC3"},{"bufferView":17,"componentType":5126,"count":24,"max":[1,1,1],"min":[-1,-1,-1],"type":"VEC3"},{"bufferView":18,"componentType":5126,"count":24,"max":[0.5390625,0.1312500238418579],"min":[0.453125,0.03125],"type":"VEC2"},{"bufferView":19,"componentType":5123,"count":36,"max":[23],"min":[0],"type":"SCALAR"},{"bufferView":20,"componentType":5126,"count":24,"max":[0.0625,0.0625,0.0625],"min":[-0.15625,-6.938893903907228e-18,-0.0625],"type":"VEC3"},{"bufferView":21,"componentType":5126,"count":24,"max":[1,1,1],"min":[-1,-1,-1],"type":"VEC3"},{"bufferView":22,"componentType":5126,"count":24,"max":[0.5078125,0.140625],"min":[0.453125,0.109375],"type":"VEC2"},{"bufferView":23,"componentType":5123,"count":36,"max":[23],"min":[0],"type":"SCALAR"},{"bufferView":24,"componentType":5126,"count":24,"max":[0.0625,0.0625,0.0625],"min":[-0.28125,6.938893903907228e-18,-0.02500000037252903],"type":"VEC3"},{"bufferView":25,"componentType":5126,"count":24,"max":[1,1,1],"min":[-1,-1,-1],"type":"VEC3"},{"bufferView":26,"componentType":5126,"count":24,"max":[0.5390625,0.1312500238418579],"min":[0.453125,0.109375],"type":"VEC2"},{"bufferView":27,"componentType":5123,"count":36,"max":[23],"min":[0],"type":"SCALAR"},{"bufferView":28,"componentType":5126,"count":160,"max":[0.0625,0.8187500238418579,0.0625],"min":[-0.0625,-0.3187499940395355,-0.0625],"type":"VEC3"},{"bufferView":29,"componentType":5126,"count":160,"max":[1,1,1],"min":[-1,-1,-1],"type":"VEC3"},{"bufferView":30,"componentType":5126,"count":160,"max":[0.390625,0.59375],"min":[0.0031937500461935997,0],"type":"VEC2"},{"bufferView":31,"componentType":5123,"count":192,"max":[159],"min":[0],"type":"SCALAR"},{"bufferView":32,"componentType":5126,"count":160,"max":[0.0625,0.45625001192092896,0.0625],"min":[-0.0625,0.04374999925494194,-0.0625],"type":"VEC3"},{"bufferView":33,"componentType":5126,"count":160,"max":[1,1,1],"min":[-1,-1,-1],"type":"VEC3"},{"bufferView":34,"componentType":5126,"count":160,"max":[0.390625,0.59375],"min":[0.0031937500461935997,0],"type":"VEC2"},{"bufferView":35,"componentType":5123,"count":192,"max":[159],"min":[0],"type":"SCALAR"}],"materials":[{"pbrMetallicRoughness":{"metallicFactor":0,"roughnessFactor":1,"baseColorTexture":{"index":0}},"alphaMode":"MASK","alphaCutoff":0.05,"doubleSided":true}],"textures":[{"sampler":0,"source":0,"name":"texture"}],"samplers":[{"magFilter":9728,"minFilter":9728,"wrapS":33071,"wrapT":33071}],"images":[{"mimeType":"image/png","uri":"data:image/png;base64,"}],"meshes":[{"primitives":[{"mode":4,"attributes":{"POSITION":0,"NORMAL":1,"TEXCOORD_0":2},"indices":3,"material":0}]},{"primitives":[{"mode":4,"attributes":{"POSITION":4,"NORMAL":5,"TEXCOORD_0":6},"indices":7,"material":0}]},{"primitives":[{"mode":4,"attributes":{"POSITION":8,"NORMAL":9,"TEXCOORD_0":10},"indices":11,"material":0}]},{"primitives":[{"mode":4,"attributes":{"POSITION":12,"NORMAL":13,"TEXCOORD_0":14},"indices":15,"material":0}]},{"primitives":[{"mode":4,"attributes":{"POSITION":16,"NORMAL":17,"TEXCOORD_0":18},"indices":19,"material":0}]},{"primitives":[{"mode":4,"attributes":{"POSITION":20,"NORMAL":21,"TEXCOORD_0":22},"indices":23,"material":0}]},{"primitives":[{"mode":4,"attributes":{"POSITION":24,"NORMAL":25,"TEXCOORD_0":26},"indices":27,"material":0}]},{"primitives":[{"mode":4,"attributes":{"POSITION":28,"NORMAL":29,"TEXCOORD_0":30},"indices":31,"material":0}]},{"primitives":[{"mode":4,"attributes":{"POSITION":32,"NORMAL":33,"TEXCOORD_0":34},"indices":35,"material":0}]}]}