{"asset":{"version":"2.0","generator":"Blockbench 4.12.2 glTF exporter"},"scenes":[{"nodes":[2],"name":"blockbench_export"}],"scene":0,"nodes":[{"name":"sphere","mesh":0},{"name":"bone","children":[0]},{"children":[1]}],"bufferViews":[{"buffer":0,"byteOffset":0,"byteLength":9120,"target":34962,"byteStride":12},{"buffer":0,"byteOffset":9120,"byteLength":9120,"target":34962,"byteStride":12},{"buffer":0,"byteOffset":18240,"byteLength":6080,"target":34962,"byteStride":8},{"buffer":0,"byteOffset":24320,"byteLength":2160,"target":34963},{"buffer":0,"byteOffset":26480,"byteLength":8},{"buffer":0,"byteOffset":26488,"byteLength":32},{"buffer":0,"byteOffset":26520,"byteLength":8},{"buffer":0,"byteOffset":26528,"byteLength":24},{"buffer":0,"byteOffset":26552,"byteLength":68},{"buffer":0,"byteOffset":26620,"byteLength":204}],"buffers":[{"byteLength":26824,"uri":"data:application/octet-stream;base64,"}],"accessors":[{"bufferView":0,"componentType":5126,"count":760,"max":[0.5,0.5,0.5],"min":[-0.5,-0.5,-0.5],"type":"VEC3"},{"bufferView":1,"componentType":5126,"count":760,"max":[0.9876883625984192,0.9876883625984192,0.9876883625984192],"min":[-0.9876883625984192,-0.9876883625984192,-0.9876883625984192],"type":"VEC3"},{"bufferView":2,"componentType":5126,"count":760,"max":[0.7266533970832825,0.6293966770172119],"min":[0.0008582673035562038,0],"type":"VEC2"},{"bufferView":3,"componentType":5123,"count":1080,"max":[759],"min":[0],"type":"SCALAR"},{"bufferView":4,"componentType":5126,"count":2,"max":[1],"min":[0],"type":"SCALAR"},{"bufferView":5,"componentType":5126,"count":2,"max":[0,0,0,1],"min":[0,0,0,1],"type":"VEC4"},{"bufferView":6,"componentType":5126,"count":2,"max":[1],"min":[0],"type":"SCALAR"},{"bufferView":7,"componentType":5126,"count":2,"max":[0,0.5,0],"min":[0,0,0],"type":"VEC3"},{"bufferView":8,"componentType":5126,"count":17,"max":[1],"min":[0],"type":"SCALAR"},{"bufferView":9,"componentType":5126,"count":17,"max":[3,3,3],"min":[1,1,1],"type":"VEC3"}],"materials":[{"pbrMetallicRoughness":{"metallicFactor":0,"roughnessFactor":1,"baseColorTexture":{"index":0}},"alphaMode":"MASK","alphaCutoff":0.05,"doubleSided":true}],"textures":[{"sampler":0,"source":0,"name":"texture"}],"samplers":[{"magFilter":9728,"minFilter":9728,"wrapS":33071,"wrapT":33071}],"images":[{"mimeType":"image/png","uri":"data:image/png;base64,"}],"meshes":[{"primitives":[{"mode":4,"attributes":{"POSITION":0,"NORMAL":1,"TEXCOORD_0":2},"indices":3,"material":0}]}],"animations":[{"name":"explode","samplers":[{"input":4,"output":5,"interpolation":"LINEAR"},{"input":6,"output":7,"interpolation":"LINEAR"},{"input":8,"output":9,"interpolation":"LINEAR"}],"channels":[{"sampler":0,"target":{"node":1,"path":"rotation"}},{"sampler":1,"target":{"node":1,"path":"translation"}},{"sampler":2,"target":{"node":1,"path":"scale"}}]}]}