{
  "asset": {
    "generator": "glTF-Transform v4.1.2",
    "version": "2.0"
  },
  "accessors": [
    {
      "type": "SCALAR",
      "componentType": 5123,
      "count": 36,
      "bufferView": 0,
      "byteOffset": 0
    },
    {
      "type": "VEC3",
      "componentType": 5126,
      "count": 24,
      "max": [
        0.1875,
        0.5625,
        0.1875
      ],
      "min": [
        -0.1875,
        0,
        -0.1875
      ],
      "bufferView": 1,
      "byteOffset": 0
    },
    {
      "type": "VEC3",
      "componentType": 5126,
      "count": 24,
      "bufferView": 1,
      "byteOffset": 12
    },
    {
      "type": "VEC3",
      "componentType": 5126,
      "count": 24,
      "max": [
        0.0625,
        0.25,
        0.0625
      ],
      "min": [
        -0.03750000149011612,
        0,
        -0.03750000149011612
      ],
      "bufferView": 2,
      "byteOffset": 0
    }
  ],
  "bufferViews": [
    {
      "buffer": 0,
      "byteOffset": 0,
      "byteLength": 72,
      "target": 34963
    },
    {
      "buffer": 0,
      "byteOffset": 72,
      "byteLength": 576,
      "byteStride": 24,
      "target": 34962
    },
    {
      "buffer": 0,
      "byteOffset": 648,
      "byteLength": 288,
      "byteStride": 12,
      "target": 34962
    }
  ],
  "buffers": [
    {
      "uri": "keep_power-named-nodes.bin",
      "byteLength": 936
    }
  ],
  "materials": [
    {
      "alphaMode": "MASK",
      "alphaCutoff": 0.05,
      "doubleSided": true,
      "pbrMetallicRoughness": {
        "metallicFactor": 0
      }
    }
  ],
  "meshes": [
    {
      "primitives": [
        {
          "attributes": {
            "POSITION": 1,
            "NORMAL": 2
          },
          "mode": 4,
          "material": 0,
          "indices": 0
        }
      ]
    },
    {
      "primitives": [
        {
          "attributes": {
            "POSITION": 3,
            "NORMAL": 2
          },
          "mode": 4,
          "material": 0,
          "indices": 0
        }
      ]
    },
    {
      "primitives": [
        {
          "attributes": {
            "POSITION": 3,
            "NORMAL": 2
          },
          "mode": 4,
          "material": 0,
          "indices": 0
        }
      ]
    }
  ],
  "nodes": [
    {
      "name": "cube",
      "translation": [
        0,
        0.25,
        0
      ],
      "mesh": 0
    },
    {
      "name": "cube",
      "translation": [
        -0.125,
        0,
        -0.125
      ],
      "mesh": 1
    },
    {
      "name": "cube",
      "translation": [
        -0.125,
        0,
        0.09375
      ],
      "mesh": 2
    },
    {
      "name": "cube",
      "translation": [
        0.125,
        0,
        0.11875
      ],
      "rotation": [
        0,
        1,
        0,
        -6.123233995736766e-17
      ],
      "mesh": 2
    },
    {
      "name": "cube",
      "translation": [
        0.125,
        0,
        -0.1
      ],
      "rotation": [
        0,
        1,
        0,
        -6.123233995736766e-17
      ],
      "mesh": 2
    }
  ],
  "scenes": [
    {
      "name": "blockbench_export",
      "nodes": [
        0,
        1,
        2,
        3,
        4
      ]
    }
  ],
  "scene": 0
}