{"asset":{"version":"2.0","generator":"Blockbench 4.12.2 glTF exporter"},"scenes":[{"nodes":[6],"name":"blockbench_export"}],"scene":0,"nodes":[{"rotation":[0,0.21643961393810288,0,0.9762960071199334],"translation":[0.053443806250639284,-0.012500000000000015,0.257816225495639],"name":"cube","mesh":0},{"rotation":[0.7071067811865475,0,0,0.7071067811865476],"translation":[0.003443806250639292,-0.012500000000000015,-0.5734337745043611],"name":"cylinder","mesh":1},{"rotation":[0.7071067811865475,0,0,0.7071067811865476],"translation":[0.003443806250639292,-0.012500000000000015,0.17656622549563894],"name":"cylinder","mesh":2},{"rotation":[-0.7071067811865475,0,0,0.7071067811865476],"translation":[0.003443806250639292,-0.012500000000000015,-1.0109337745043612],"name":"cone","mesh":3},{"rotation":[0,-0.17364817766693033,0,0.984807753012208],"translation":[-0.13405619374936073,-0.012500000000000015,0.23906622549563905],"name":"cube","mesh":4},{"rotation":[-1,0,0,6.123233995736766e-17],"translation":[-0.003443806250639292,0.012500000000000015,-0.30156622549563894],"name":"bone","children":[0,1,2,3,4]},{"children":[5]}],"bufferViews":[{"buffer":0,"byteOffset":0,"byteLength":288,"target":34962,"byteStride":12},{"buffer":0,"byteOffset":288,"byteLength":288,"target":34962,"byteStride":12},{"buffer":0,"byteOffset":576,"byteLength":192,"target":34962,"byteStride":8},{"buffer":0,"byteOffset":768,"byteLength":72,"target":34963},{"buffer":0,"byteOffset":840,"byteLength":1440,"target":34962,"byteStride":12},{"buffer":0,"byteOffset":2280,"byteLength":1440,"target":34962,"byteStride":12},{"buffer":0,"byteOffset":3720,"byteLength":960,"target":34962,"byteStride":8},{"buffer":0,"byteOffset":4680,"byteLength":288,"target":34963},{"buffer":0,"byteOffset":4968,"byteLength":1440,"target":34962,"byteStride":12},{"buffer":0,"byteOffset":6408,"byteLength":1440,"target":34962,"byteStride":12},{"buffer":0,"byteOffset":7848,"byteLength":960,"target":34962,"byteStride":8},{"buffer":0,"byteOffset":8808,"byteLength":288,"target":34963},{"buffer":0,"byteOffset":9096,"byteLength":864,"target":34962,"byteStride":12},{"buffer":0,"byteOffset":9960,"byteLength":864,"target":34962,"byteStride":12},{"buffer":0,"byteOffset":10824,"byteLength":576,"target":34962,"byteStride":8},{"buffer":0,"byteOffset":11400,"byteLength":144,"target":34963},{"buffer":0,"byteOffset":11544,"byteLength":288,"target":34962,"byteStride":12},{"buffer":0,"byteOffset":11832,"byteLength":288,"target":34962,"byteStride":12},{"buffer":0,"byteOffset":12120,"byteLength":192,"target":34962,"byteStride":8},{"buffer":0,"byteOffset":12312,"byteLength":72,"target":34963}],"buffers":[{"byteLength":12384,"uri":"data:application/octet-stream;base64,"}],"accessors":[{"bufferView":0,"componentType":5126,"count":24,"max":[0.125,0.0625,0.375],"min":[-0.0625,0,-0.0625],"type":"VEC3"},{"bufferView":1,"componentType":5126,"count":24,"max":[1,1,1],"min":[-1,-1,-1],"type":"VEC3"},{"bufferView":2,"componentType":5126,"count":24,"max":[0.59375,0.625],"min":[0.078125,0],"type":"VEC2"},{"bufferView":3,"componentType":5123,"count":36,"max":[23],"min":[0],"type":"SCALAR"},{"bufferView":4,"componentType":5126,"count":120,"max":[0.1875,0.75,0.1875],"min":[-0.1875,-0.25,-0.1875],"type":"VEC3"},{"bufferView":5,"componentType":5126,"count":120,"max":[1,1,1],"min":[-1,-1,-1],"type":"VEC3"},{"bufferView":6,"componentType":5126,"count":120,"max":[0.515625,0.59375],"min":[0,0],"type":"VEC2"},{"bufferView":7,"componentType":5123,"count":144,"max":[119],"min":[0],"type":"SCALAR"},{"bufferView":8,"componentType":5126,"count":120,"max":[0.15625,0.5,0.15625],"min":[-0.15625,0,-0.15625],"type":"VEC3"},{"bufferView":9,"componentType":5126,"count":120,"max":[1,1,1],"min":[-1,-1,-1],"type":"VEC3"},{"bufferView":10,"componentType":5126,"count":120,"max":[0.59375,0.640625],"min":[0.22641094028949738,0],"type":"VEC2"},{"bufferView":11,"componentType":5123,"count":144,"max":[119],"min":[0],"type":"SCALAR"},{"bufferView":12,"componentType":5126,"count":72,"max":[0.25,0.6875,0.25],"min":[-0.25,-0.1875,-0.25],"type":"VEC3"},{"bufferView":13,"componentType":5126,"count":72,"max":[0.9615239500999451,0.2747211456298828,0.9615239500999451],"min":[-0.9615239500999451,-1,-0.9615239500999451],"type":"VEC3"},{"bufferView":14,"componentType":5126,"count":72,"max":[0.546875,0.4775046706199646],"min":[0.004807896912097931,0],"type":"VEC2"},{"bufferView":15,"componentType":5123,"count":72,"max":[71],"min":[0],"type":"SCALAR"},{"bufferView":16,"componentType":5126,"count":24,"max":[0.125,0.0625,0.375],"min":[-0.0625,0,-0.0625],"type":"VEC3"},{"bufferView":17,"componentType":5126,"count":24,"max":[1,1,1],"min":[-1,-1,-1],"type":"VEC3"},{"bufferView":18,"componentType":5126,"count":24,"max":[0.671875,0.625],"min":[0,0],"type":"VEC2"},{"bufferView":19,"componentType":5123,"count":36,"max":[23],"min":[0],"type":"SCALAR"}],"materials":[{"pbrMetallicRoughness":{"metallicFactor":0,"roughnessFactor":1,"baseColorTexture":{"index":0}},"alphaMode":"MASK","alphaCutoff":0.05,"doubleSided":true}],"textures":[{"sampler":0,"source":0,"name":"texture"}],"samplers":[{"magFilter":9728,"minFilter":9728,"wrapS":33071,"wrapT":33071}],"images":[{"mimeType":"image/png","uri":"data:image/png;base64,"}],"meshes":[{"primitives":[{"mode":4,"attributes":{"POSITION":0,"NORMAL":1,"TEXCOORD_0":2},"indices":3,"material":0}]},{"primitives":[{"mode":4,"attributes":{"POSITION":4,"NORMAL":5,"TEXCOORD_0":6},"indices":7,"material":0}]},{"primitives":[{"mode":4,"attributes":{"POSITION":8,"NORMAL":9,"TEXCOORD_0":10},"indices":11,"material":0}]},{"primitives":[{"mode":4,"attributes":{"POSITION":12,"NORMAL":13,"TEXCOORD_0":14},"indices":15,"material":0}]},{"primitives":[{"mode":4,"attributes":{"POSITION":16,"NORMAL":17,"TEXCOORD_0":18},"indices":19,"material":0}]}]}